<?xml version="1.0" standalone="no"?>
<!DOCTYPE svg PUBLIC "-//W3C//DTD SVG 20010904//EN"
 "http://www.w3.org/TR/2001/REC-SVG-20010904/DTD/svg10.dtd">
<svg version="1.0" xmlns="http://www.w3.org/2000/svg"
 width="330.000000pt" height="330.000000pt" viewBox="0 0 330.000000 330.000000"
 preserveAspectRatio="xMidYMid meet">
<metadata>
Created by potrace 1.11, written by Peter Selinger 2001-2013
</metadata>
<g transform="translate(0.000000,330.000000) scale(0.100000,-0.100000)"
fill="#000000" stroke="none">
<path d="M1493 3270 c-39 -10 -86 -26 -103 -35 -20 -10 -65 -18 -123 -20 -102
-4 -126 -8 -195 -31 -82 -28 -161 -75 -230 -139 -47 -43 -85 -68 -128 -84
-164 -60 -309 -204 -374 -372 -19 -48 -43 -85 -88 -133 -41 -44 -74 -93 -101
-149 -49 -103 -62 -159 -67 -272 -2 -64 -9 -104 -24 -138 -64 -145 -64 -349 0
-494 14 -33 22 -74 24 -137 5 -115 19 -171 68 -274 26 -56 59 -104 102 -150
45 -48 69 -84 85 -129 38 -103 114 -206 209 -281 53 -41 170 -102 197 -102 8
0 49 -32 91 -70 52 -49 100 -82 157 -109 103 -49 158 -62 272 -67 63 -2 105
-9 136 -23 148 -66 378 -64 509 4 17 9 69 17 127 19 184 9 340 78 462 206 14
15 54 37 88 50 162 58 307 202 373 371 19 48 43 85 88 133 41 44 74 93 101
149 49 104 63 159 67 272 2 65 9 103 24 138 64 144 64 350 0 494 -15 35 -22
73 -25 138 -6 169 -61 308 -170 423 -42 46 -67 83 -85 131 -65 168 -210 312
-374 372 -43 16 -81 41 -128 84 -69 64 -148 111 -230 139 -67 22 -92 26 -194
31 -61 4 -107 12 -136 25 -114 50 -282 63 -405 30z m286 -25 c31 -8 70 -19 86
-25 l30 -12 -56 -17 c-30 -10 -86 -34 -123 -54 l-67 -35 -72 38 c-40 21 -94
44 -120 51 -27 6 -44 16 -40 20 18 18 161 47 231 47 41 0 99 -6 131 -13z
m-547 -111 c-33 -30 -77 -76 -96 -103 l-36 -48 -51 9 c-29 5 -87 8 -130 6 -44
-2 -79 0 -79 4 0 12 83 74 140 106 90 49 178 74 284 78 27 2 26 -1 -32 -52z
m913 41 c56 -9 176 -61 224 -96 52 -37 91 -71 91 -78 0 -3 -45 -5 -100 -4 -55
1 -113 -2 -129 -7 -27 -7 -32 -4 -77 53 -27 34 -73 80 -102 104 l-53 43 53 -4
c29 -3 71 -7 93 -11z m-645 -32 c36 -14 78 -35 93 -46 l29 -20 -39 -36 c-51
-47 -112 -132 -142 -198 l-24 -51 -36 33 c-20 18 -48 43 -63 55 -34 26 -158
90 -177 90 -9 0 -4 13 15 38 50 65 68 83 129 129 56 42 62 44 105 38 25 -4 74
-18 110 -32z m517 -7 c32 -24 67 -55 78 -68 38 -44 65 -81 65 -88 0 -4 -22
-17 -50 -28 -63 -26 -148 -82 -191 -126 l-33 -35 -34 67 c-39 76 -79 130 -135
183 -42 40 -42 41 33 79 57 30 147 59 182 59 16 1 48 -16 85 -43z m-222 -236
c14 -22 34 -62 44 -88 l19 -48 -30 -45 c-93 -136 -129 -309 -98 -479 l11 -63
-44 -45 -45 -45 -47 45 -47 44 9 46 c36 167 -1 360 -95 497 -32 47 -32 54 0
121 23 49 97 147 139 185 l43 38 58 -62 c32 -34 70 -80 83 -101z m-719 57 c4
-3 0 -21 -9 -39 -34 -74 -50 -138 -54 -225 -5 -81 -8 -91 -22 -84 -63 33 -165
55 -263 55 -57 0 -57 1 -53 28 9 52 36 122 71 184 38 69 48 80 84 87 34 7 238
2 246 -6z m1434 -12 c40 -36 132 -256 115 -273 -2 -3 -37 -6 -77 -8 -82 -4
-153 -18 -215 -45 l-43 -18 -1 69 c-1 39 -2 73 -3 78 -1 4 -5 24 -10 46 -4 21
-18 63 -32 94 -13 30 -24 58 -24 63 0 13 48 17 162 15 89 -2 111 -6 128 -21z
m-1810 -88 c-20 -43 -43 -104 -49 -135 l-11 -58 -72 -18 c-39 -10 -101 -34
-136 -52 -36 -19 -66 -33 -68 -31 -1 1 14 35 34 75 46 90 115 170 193 223 49
33 139 80 146 75 1 0 -16 -36 -37 -79z m516 47 c41 -20 99 -61 134 -93 59 -55
61 -58 49 -87 -6 -16 -13 -72 -15 -124 -5 -141 28 -261 104 -378 l34 -52 -22
-54 -22 -55 -38 14 c-70 25 -76 31 -89 92 -18 81 -81 208 -138 274 -26 31 -76
76 -111 100 l-63 44 4 95 c6 121 51 260 85 260 8 0 48 -16 88 -36z m999 -26
c31 -77 45 -146 45 -226 l-1 -67 -50 -34 c-119 -81 -220 -228 -258 -377 l-18
-69 -54 -22 -54 -22 -23 51 c-26 57 -26 53 29 142 52 85 81 188 84 301 2 59
-3 120 -10 150 l-14 50 58 56 c60 57 191 131 224 127 13 -2 27 -23 42 -60z
m494 -18 c77 -52 146 -132 193 -222 21 -39 36 -73 35 -75 -2 -1 -38 15 -80 36
-42 21 -103 43 -135 50 l-59 11 -17 68 c-13 55 -35 108 -84 205 -7 14 89 -33
147 -73z m-1226 -222 c44 -90 67 -181 67 -273 0 -76 -9 -145 -19 -145 -14 0
-61 90 -87 165 -22 65 -27 99 -28 180 -1 102 8 160 23 151 5 -3 25 -38 44 -78z
m401 -63 c-1 -91 -5 -123 -27 -185 -27 -80 -73 -170 -87 -170 -14 0 -23 106
-17 189 6 87 35 182 79 260 28 48 32 51 42 35 6 -11 10 -68 10 -129z m-1023
45 c97 -24 149 -51 155 -79 38 -179 114 -302 249 -405 68 -52 70 -54 69 -97
-1 -79 1 -76 -56 -74 -29 1 -56 3 -59 4 -3 0 -21 22 -39 47 -102 142 -238 229
-421 268 -21 5 -31 17 -47 58 -30 75 -41 126 -46 199 -5 91 -1 96 82 93 38 -1
89 -8 113 -14z m1770 5 c10 -79 -8 -198 -42 -283 -17 -40 -27 -53 -48 -58
-183 -39 -312 -121 -418 -265 l-40 -55 -57 0 c-31 0 -57 2 -57 5 -1 3 -3 29
-5 58 l-3 51 55 42 c149 113 229 237 268 421 4 20 17 31 48 44 68 28 99 36
158 42 30 3 56 6 57 8 9 7 83 -2 84 -10z m-1996 -66 c2 -77 20 -167 45 -224
l18 -42 -91 -6 c-93 -6 -159 -22 -217 -52 -49 -26 -55 -12 -55 129 0 105 3
127 18 144 36 40 235 126 271 118 5 -1 10 -31 11 -67z m2135 44 c56 -18 162
-76 181 -99 10 -13 14 -50 14 -145 0 -70 -3 -130 -6 -134 -4 -3 -31 4 -60 16
-81 32 -157 48 -231 49 l-67 0 18 43 c30 72 42 126 46 222 2 39 4 71 4 73 1 3
48 -8 101 -25z m-1610 -152 c64 -65 142 -197 154 -261 2 -14 8 -33 12 -44 22
-56 -130 80 -187 168 -39 59 -70 133 -84 194 -7 33 -6 33 17 21 12 -6 52 -42
88 -78z m1075 22 c-28 -99 -74 -173 -162 -260 -45 -46 -86 -83 -91 -83 -17 0
6 82 48 165 22 44 61 104 88 132 50 56 122 116 129 109 3 -3 -3 -31 -12 -63z
m-1921 -261 c3 -6 -16 -27 -44 -47 -27 -20 -75 -64 -105 -98 l-56 -62 6 65
c12 126 63 250 144 350 l36 45 6 -122 c4 -66 9 -125 13 -131z m2737 196 c77
-98 120 -209 134 -343 l6 -60 -56 62 c-30 34 -77 77 -103 97 l-48 35 11 77 c6
43 8 102 5 131 -3 29 -3 53 2 53 4 0 26 -23 49 -52z m-2302 -198 c82 -121 225
-220 370 -256 74 -19 74 -19 97 -69 27 -57 23 -65 -41 -90 l-45 -17 -63 40
c-34 21 -98 52 -142 67 -71 26 -93 29 -200 29 -71 -1 -132 -6 -149 -13 -29
-11 -31 -10 -86 47 -58 61 -134 197 -128 228 7 35 168 82 283 83 l70 0 34 -49z
m2051 33 c81 -22 140 -51 140 -70 0 -34 -72 -160 -124 -219 l-55 -61 -58 13
c-57 12 -209 12 -268 -1 -53 -11 -159 -57 -212 -93 l-53 -35 -44 17 c-65 25
-69 34 -42 92 23 49 25 51 82 63 142 31 304 140 385 260 l34 51 80 -1 c44 -1
104 -9 135 -16z m-1924 -25 c29 -10 78 -36 110 -57 81 -51 222 -208 171 -188
-9 3 -35 11 -59 17 -78 21 -181 83 -249 150 -36 36 -72 76 -78 88 -12 23 -12
24 21 17 18 -4 56 -16 84 -27z m1653 11 c-23 -43 -136 -147 -199 -182 -64 -35
-188 -82 -197 -74 -7 7 72 101 118 141 60 52 122 87 199 113 84 29 94 29 79 2z
m-2193 -86 c16 -50 29 -75 62 -126 20 -31 54 -73 74 -95 l37 -40 -42 -18 c-65
-28 -142 -81 -196 -135 l-50 -50 -15 23 c-30 46 -66 136 -77 191 -11 54 -10
59 13 94 34 51 85 106 132 143 45 35 54 37 62 13z m2690 -13 c47 -37 98 -92
132 -143 23 -35 24 -40 13 -94 -11 -56 -78 -213 -90 -213 -4 0 -21 16 -40 35
-55 59 -114 103 -185 139 -50 25 -64 36 -54 42 42 26 136 168 162 247 8 24 17
22 62 -13z m-1441 -23 l37 -34 -26 -16 c-16 -11 -35 -15 -55 -11 -17 4 -31 8
-31 10 0 6 34 84 37 84 1 0 18 -15 38 -33z m188 -9 c9 -23 16 -43 14 -44 -12
-12 -65 -11 -86 2 l-24 16 34 34 c19 18 37 33 40 33 3 1 13 -18 22 -41z m-323
-73 c0 -16 -29 -41 -57 -49 -24 -8 -25 -7 -25 49 0 19 1 37 1 39 2 10 81 -28
81 -39z m482 -9 c-4 -42 -6 -46 -26 -41 -11 4 -32 18 -44 33 l-24 25 44 17
c23 9 45 16 48 14 3 -1 4 -23 2 -48z m-272 24 c0 -5 -2 -10 -4 -10 -3 0 -8 5
-11 10 -3 6 -1 10 4 10 6 0 11 -4 11 -10z m-150 -30 c-19 -13 -30 -13 -30 0 0
6 10 10 23 10 18 0 19 -2 7 -10z m310 0 c0 -13 -11 -13 -30 0 -12 8 -11 10 8
10 12 0 22 -4 22 -10z m-20 -35 c131 -55 202 -169 203 -325 0 -161 -72 -272
-213 -327 -100 -40 -194 -39 -290 1 -75 32 -144 95 -161 146 -7 19 -20 53 -30
75 -20 44 -22 182 -2 207 5 7 17 35 26 62 21 63 88 131 147 151 25 9 56 22 70
30 42 23 172 13 250 -20z m-476 -68 c-8 -28 -34 -57 -49 -57 -7 0 -19 18 -27
39 l-16 40 42 3 c52 4 58 1 50 -25z m56 29 c0 -3 -4 -8 -10 -11 -5 -3 -10 -1
-10 4 0 6 5 11 10 11 6 0 10 -2 10 -4z m560 -6 c0 -5 -2 -10 -4 -10 -3 0 -8 5
-11 10 -3 6 -1 10 4 10 6 0 11 -4 11 -10z m122 1 c12 -2 -25 -81 -37 -81 -22
0 -62 61 -51 78 3 6 49 7 88 3z m-1930 -151 c12 -30 32 -71 45 -91 l24 -36
-37 -67 c-20 -37 -44 -92 -54 -123 -19 -62 -21 -61 -44 17 -35 116 -28 279 14
385 l12 30 10 -30 c5 -16 19 -55 30 -85z m770 81 c66 -21 178 -79 178 -92 0
-10 -67 -19 -146 -19 -88 0 -202 28 -280 70 -90 48 -89 47 -9 63 49 10 194 -2
257 -22z m1803 11 c14 -7 11 -12 -20 -31 -58 -34 -145 -68 -207 -81 -79 -16
-258 -10 -258 9 1 23 168 96 252 110 64 10 211 6 233 -7z m530 -52 c33 -108
26 -280 -16 -385 l-12 -30 -17 57 c-10 31 -34 87 -54 123 l-36 66 23 37 c29
45 77 164 77 188 0 30 17 3 35 -56z m-2610 -19 c125 -73 281 -99 434 -71 l64
11 45 -44 44 -45 -43 -46 c-46 -50 -42 -50 -144 -30 -11 3 -52 5 -90 5 -121 1
-253 -40 -354 -109 -39 -26 -48 -29 -75 -19 -60 21 -168 93 -218 145 l-51 54
44 45 c55 56 143 117 206 142 42 17 51 17 68 5 11 -7 43 -27 70 -43z m2215 27
c51 -25 136 -88 180 -132 l45 -46 -71 -68 c-64 -61 -133 -105 -206 -131 -21
-8 -32 -6 -50 8 -64 50 -187 102 -273 116 -62 10 -172 7 -233 -6 l-56 -11 -44
47 -45 47 44 44 c46 48 42 47 129 29 37 -8 138 -7 195 0 95 13 211 61 283 116
24 19 40 17 102 -13z m-1540 -15 c0 -5 -5 -15 -10 -23 -8 -12 -10 -11 -10 8 0
12 5 22 10 22 6 0 10 -3 10 -7z m720 -15 c0 -19 -2 -20 -10 -8 -13 19 -13 30
0 30 6 0 10 -10 10 -22z m-769 -20 c0 -7 2 -22 4 -33 2 -11 -3 -31 -12 -44
l-16 -25 -33 40 -34 39 38 17 c46 21 52 21 53 6z m845 -4 c22 -9 41 -18 43
-19 2 -2 -13 -20 -32 -40 l-36 -37 -15 25 c-11 16 -14 34 -10 55 4 18 8 32 9
32 1 0 20 -7 41 -16z m-826 -118 c0 -3 -4 -8 -10 -11 -5 -3 -10 -1 -10 4 0 6
5 11 10 11 6 0 10 -2 10 -4z m780 -6 c0 -5 -2 -10 -4 -10 -3 0 -8 5 -11 10 -3
6 -1 10 4 10 6 0 11 -4 11 -10z m-1720 -132 c25 -20 75 -51 112 -70 l66 -33
-35 -35 c-47 -47 -100 -130 -127 -195 l-22 -54 -55 43 c-66 51 -149 158 -149
191 0 29 38 152 56 182 8 13 21 35 30 49 l16 27 32 -35 c17 -19 51 -50 76 -70z
m924 28 c-3 -17 -8 -32 -9 -34 -2 -2 -55 20 -83 34 -1 1 12 18 30 38 l33 37
18 -22 c13 -16 16 -31 11 -53z m885 -1 c-4 -3 -79 -35 -84 -35 -1 0 -5 14 -9
32 -4 21 -1 39 10 55 l15 25 36 -37 c19 -20 34 -38 32 -40z m990 -13 c17 -38
36 -94 42 -125 11 -54 10 -59 -14 -96 -32 -48 -100 -119 -149 -155 l-36 -27
-16 48 c-19 56 -75 144 -127 201 l-37 39 60 28 c69 33 138 83 188 137 41 45
46 42 89 -50z m-2053 5 c16 -16 -91 -74 -191 -103 -68 -21 -257 -25 -289 -7
-16 9 -12 14 35 41 48 27 136 61 194 75 31 7 243 3 251 -6z m1439 -7 c43 -11
107 -36 143 -57 63 -35 65 -37 41 -46 -13 -6 -69 -10 -124 -11 -77 0 -117 5
-173 22 -76 24 -174 73 -180 90 -9 27 192 28 293 2z m-1308 -39 l32 -16 -22
-54 -22 -55 -70 -17 c-147 -37 -295 -139 -376 -259 l-34 -49 -65 -1 c-119 0
-290 51 -290 87 0 34 74 164 126 221 51 57 56 60 85 52 59 -17 193 -22 259
-10 82 15 181 53 245 96 53 35 71 36 132 5z m93 -3 c0 -5 -4 -8 -10 -8 -5 0
-10 10 -10 23 0 18 2 19 10 7 5 -8 10 -18 10 -22z m716 -5 c-11 -11 -17 4 -9
23 7 18 8 18 11 1 2 -10 1 -21 -2 -24z m186 18 c36 -29 136 -77 198 -96 69
-21 215 -27 299 -13 l65 11 48 -52 c53 -58 115 -161 124 -208 6 -29 3 -32 -42
-53 -66 -29 -166 -50 -244 -50 l-65 1 -34 50 c-81 119 -229 221 -377 258 l-69
17 -22 55 -22 54 47 22 c59 27 64 27 94 4z m-893 -77 c34 -43 28 -54 -28 -54
l-49 0 15 40 c19 47 34 50 62 14z m742 -11 c7 -21 11 -40 11 -42 -2 -4 -48 -5
-82 -2 -27 2 17 81 46 81 7 0 18 -17 25 -37z m-676 -43 c3 -5 1 -10 -4 -10 -6
0 -11 5 -11 10 0 6 2 10 4 10 3 0 8 -4 11 -10z m565 0 c0 -5 -5 -10 -11 -10
-5 0 -7 5 -4 10 3 6 8 10 11 10 2 0 4 -4 4 -10z m-609 -39 c6 -1 6 -88 0 -113
0 -4 -22 -22 -48 -39 -136 -93 -228 -238 -267 -421 -5 -22 -18 -31 -73 -52
-108 -40 -242 -55 -268 -30 -24 24 -3 183 36 282 17 41 27 53 48 58 175 37
320 128 415 261 20 28 42 54 49 56 10 4 87 2 108 -2z m751 0 c4 0 22 -22 39
-48 43 -64 125 -140 193 -182 64 -39 171 -80 218 -83 27 -2 34 -9 54 -55 13
-29 26 -65 29 -80 3 -16 8 -39 11 -53 11 -51 11 -150 0 -159 -14 -11 -131 -6
-187 9 -97 24 -149 51 -155 79 -39 183 -131 327 -266 419 -27 18 -49 36 -49
40 -6 28 -4 108 3 113 7 4 86 5 110 0z m-921 -20 c-22 -40 -115 -132 -172
-170 -59 -40 -134 -72 -197 -86 -32 -7 -33 -6 -22 15 24 45 138 148 203 185
58 32 161 73 190 74 4 1 3 -8 -2 -18z m270 -7 c11 -10 19 -22 19 -29 0 -14
-80 -48 -81 -34 0 5 -1 23 -1 39 0 17 1 34 1 39 1 14 41 4 62 -15z m502 -16
c-1 -21 -2 -42 -2 -47 -1 -14 -81 20 -81 35 0 17 50 55 69 52 10 -2 14 -15 14
-40z m356 -13 c30 -14 80 -45 109 -68 62 -47 149 -150 133 -155 -17 -6 -109
27 -176 62 -64 33 -215 173 -215 199 0 13 5 13 47 1 25 -8 71 -25 102 -39z
m-779 15 c12 -8 11 -10 -7 -10 -13 0 -23 5 -23 10 0 13 11 13 30 0z m310 0 c0
-5 -10 -10 -22 -10 -19 0 -20 2 -8 10 19 13 30 13 30 0z m1365 -57 c-11 -95
-24 -144 -60 -219 -33 -69 -107 -174 -123 -174 -4 0 -6 45 -5 100 1 55 -2 114
-7 130 -8 27 -5 32 45 69 29 22 75 65 101 96 26 30 49 55 51 55 2 0 1 -26 -2
-57z m-3008 -14 c31 -33 76 -74 99 -90 39 -27 42 -31 34 -59 -5 -16 -8 -75 -7
-130 1 -55 -1 -100 -5 -100 -13 0 -89 103 -118 160 -16 31 -35 83 -44 116 -16
64 -28 164 -20 164 3 0 30 -27 61 -61z m1483 41 c0 -5 -5 -10 -11 -10 -5 0 -7
5 -4 10 3 6 8 10 11 10 2 0 4 -4 4 -10z m-61 -16 l23 -17 -37 -34 c-20 -19
-39 -33 -40 -31 -3 4 -35 79 -35 83 0 4 30 12 50 14 9 0 26 -6 39 -15z m188 2
c3 -3 -26 -77 -32 -85 -2 -2 -20 13 -40 32 l-36 35 22 16 c19 13 74 15 86 2z
m-281 -71 l16 -44 -34 -53 c-48 -72 -85 -170 -99 -258 -12 -77 -6 -200 12
-247 9 -25 5 -31 -49 -83 -57 -54 -188 -130 -225 -130 -34 0 -83 159 -86 275
l-1 80 50 34 c122 82 230 241 261 385 12 57 14 59 63 81 59 26 68 23 92 -40z
m425 18 c4 -4 10 -19 12 -33 29 -160 135 -322 268 -411 l50 -34 -4 -90 c-3
-49 -8 -101 -11 -115 -13 -56 -55 -145 -70 -148 -31 -6 -164 69 -226 127 -58
55 -60 59 -49 87 15 39 20 185 8 258 -12 76 -52 176 -97 244 l-34 52 22 55 22
54 51 -19 c28 -11 54 -23 58 -27z m-223 -36 l33 -34 -11 -63 c-12 -69 -14
-164 -5 -225 14 -87 64 -205 116 -273 19 -24 17 -39 -13 -102 -23 -49 -97
-147 -139 -185 l-43 -38 -65 70 c-37 38 -78 95 -94 126 -48 100 -48 99 -15
148 93 136 131 324 98 485 l-12 56 43 44 c47 48 53 48 107 -9z m-389 -28 c-15
-64 -71 -178 -118 -236 -42 -53 -140 -138 -148 -129 -9 9 36 140 66 191 38 65
93 128 154 176 27 22 50 39 52 39 2 0 -1 -19 -6 -41z m772 -57 c32 -34 72 -86
89 -115 33 -57 74 -171 68 -188 -5 -15 -97 59 -141 113 -45 56 -102 161 -117
216 -6 24 -14 50 -17 59 -12 30 55 -18 118 -85z m-267 -79 c18 -37 40 -98 49
-135 16 -73 16 -233 0 -263 -9 -15 -16 -9 -46 46 -50 90 -75 189 -75 296 0 48
2 102 5 120 5 28 7 30 19 18 8 -8 30 -45 48 -82z m-1412 61 c45 -23 149 -44
220 -44 l67 0 -18 -43 c-25 -58 -43 -147 -46 -227 -2 -62 -4 -65 -26 -62 -67
7 -228 79 -258 116 -16 19 -26 156 -17 230 8 62 12 63 78 30z m1134 -30 c16
-132 -13 -278 -78 -393 -27 -47 -32 -51 -41 -35 -6 11 -11 66 -11 124 -1 135
25 226 95 339 21 32 27 26 35 -35z m1417 15 c13 -48 3 -224 -13 -244 -31 -38
-191 -110 -258 -117 -23 -3 -24 0 -28 80 -2 55 -13 110 -32 167 l-28 85 66 0
c70 0 185 26 235 53 39 21 47 18 58 -24z m-2513 -341 c41 -20 100 -41 131 -48
l56 -11 17 -67 c9 -37 31 -98 50 -137 19 -38 34 -71 32 -72 -1 -1 -35 15 -76
35 -81 41 -189 138 -234 211 -32 50 -70 134 -59 129 5 -1 42 -19 83 -40z
m2470 -2 c-57 -134 -178 -255 -313 -314 -27 -12 -47 -18 -45 -14 2 4 19 41 40
82 20 41 41 101 48 133 6 31 14 57 18 58 58 6 166 43 217 73 55 33 57 32 35
-18z m-1909 -76 c2 -74 22 -159 54 -234 9 -21 13 -41 10 -45 -4 -3 -64 -6
-134 -6 -95 0 -132 4 -145 14 -47 39 -147 278 -118 282 4 0 41 2 82 4 49 2
105 13 160 32 47 16 86 28 87 28 1 0 3 -34 4 -75z m1399 34 c19 -4 42 -9 50
-11 8 -2 48 -5 88 -7 40 -2 75 -6 77 -8 16 -16 -63 -209 -108 -263 l-25 -30
-130 0 c-72 0 -133 3 -137 6 -3 4 1 24 10 45 34 78 46 131 52 221 l6 91 41
-18 c23 -9 57 -21 76 -26z m-893 -324 c21 -25 52 -59 71 -76 l35 -32 -39 -25
c-44 -29 -180 -77 -217 -77 -20 0 -72 31 -124 74 -29 24 -104 119 -100 129 1
5 23 17 48 27 57 21 143 77 189 124 l35 34 33 -66 c18 -36 49 -87 69 -112z
m501 68 c31 -21 72 -43 92 -49 19 -6 39 -15 44 -20 19 -17 -84 -134 -164 -184
-42 -27 -47 -28 -98 -17 -54 11 -146 49 -191 79 l-24 15 35 32 c54 48 113 129
143 195 l28 60 39 -37 c21 -20 64 -54 96 -74z m-804 -211 l79 -78 -57 5 c-92
10 -179 35 -249 74 -70 40 -147 99 -147 114 0 5 5 6 10 3 14 -9 156 -6 205 4
36 7 42 6 60 -18 10 -14 55 -61 99 -104z m1150 112 c38 0 78 3 90 6 35 10 -62
-72 -132 -112 -75 -42 -163 -69 -252 -77 l-64 -6 67 61 c37 34 81 80 97 104
l29 43 48 -10 c26 -5 79 -9 117 -9z m-638 -141 c40 -21 93 -42 119 -49 25 -6
42 -16 38 -20 -18 -18 -163 -47 -234 -47 -72 1 -156 16 -214 38 l-30 12 60 19
c33 11 87 34 120 53 33 18 62 33 65 32 3 -1 37 -18 76 -38z"/>
</g>
</svg>
