<?xml version="1.0" standalone="no"?>
<!DOCTYPE svg PUBLIC "-//W3C//DTD SVG 20010904//EN"
 "http://www.w3.org/TR/2001/REC-SVG-20010904/DTD/svg10.dtd">
<svg version="1.0" xmlns="http://www.w3.org/2000/svg"
 width="400.000000pt" height="400.000000pt" viewBox="0 0 400.000000 400.000000"
 preserveAspectRatio="xMidYMid meet">
<metadata>
Created by potrace 1.11, written by Peter Selinger 2001-2013
</metadata>
<g transform="translate(0.000000,400.000000) scale(0.100000,-0.100000)"
fill="#000000" stroke="none">
<path d="M1997 3873 c-3 -5 -47 -135 -97 -289 -50 -153 -100 -304 -110 -334
-10 -30 -102 -309 -204 -620 -101 -311 -261 -799 -355 -1085 -93 -286 -186
-571 -206 -632 -20 -62 -40 -113 -44 -113 -3 0 -56 29 -116 63 -61 35 -261
150 -445 256 -184 107 -352 204 -372 217 -21 13 -38 21 -38 17 0 -4 46 -83
103 -175 56 -93 107 -176 112 -186 6 -10 109 -181 230 -380 121 -199 229 -378
240 -396 11 -19 31 -53 44 -75 l25 -41 1236 0 1236 0 169 280 c94 155 215 356
271 448 55 92 151 249 212 350 62 101 109 181 105 179 -5 -2 -220 -126 -479
-275 -260 -150 -479 -274 -487 -278 -12 -4 -24 21 -57 123 -23 70 -83 256
-135 413 -51 157 -166 508 -255 780 -89 272 -204 623 -255 780 -52 157 -133
404 -180 550 -134 409 -142 432 -148 423z m-40 -2038 c0 -877 -3 -1595 -6
-1595 -4 0 -101 55 -216 121 -116 67 -231 133 -256 148 -330 189 -407 236
-404 245 2 6 76 234 165 506 89 272 193 592 232 710 38 118 73 224 78 235 4
11 54 162 110 335 165 509 291 890 294 890 2 0 3 -718 3 -1595z m258 1088 c91
-280 174 -533 185 -563 10 -30 91 -278 180 -550 89 -272 198 -605 242 -740 44
-135 86 -263 93 -285 15 -47 28 -34 -135 -127 -63 -36 -252 -145 -419 -242
-167 -97 -307 -174 -310 -170 -6 5 -11 3184 -5 3184 2 0 78 -228 169 -507z
m-1348 -2172 c45 -25 83 -50 83 -54 0 -17 -145 -457 -151 -457 -4 0 -230 364
-274 443 -12 22 -213 354 -233 384 -9 15 72 -27 239 -123 140 -81 291 -167
336 -193z m2832 302 c-12 -21 -32 -54 -44 -73 -13 -19 -96 -156 -185 -305
-246 -409 -263 -435 -269 -435 -6 0 -151 440 -151 456 1 5 89 60 198 122 108
62 258 148 332 191 74 44 136 80 138 80 2 1 -6 -16 -19 -36z m-2269 -629 c179
-103 338 -194 353 -202 16 -8 26 -16 24 -18 -3 -3 -677 -6 -884 -4 l-31 0 74
223 c40 122 74 223 74 225 0 2 15 -5 33 -16 17 -11 178 -104 357 -208z m1605
-3 l73 -221 -96 0 c-312 -2 -816 0 -818 3 -3 3 141 88 241 142 28 15 57 34 66
41 8 8 18 14 21 14 3 0 101 56 219 124 118 68 215 123 217 121 1 -1 36 -102
77 -224z"/>
</g>
</svg>
