<?xml version="1.0" standalone="no"?>
<!DOCTYPE svg PUBLIC "-//W3C//DTD SVG 20010904//EN"
 "http://www.w3.org/TR/2001/REC-SVG-20010904/DTD/svg10.dtd">
<svg version="1.0" xmlns="http://www.w3.org/2000/svg"
 width="600.000000pt" height="600.000000pt" viewBox="0 0 600.000000 600.000000"
 preserveAspectRatio="xMidYMid meet">
<metadata>
Created by potrace 1.11, written by Peter Selinger 2001-2013
</metadata>
<g transform="translate(0.000000,600.000000) scale(0.100000,-0.100000)"
fill="#000000" stroke="none">
<path d="M1251 3947 l0 -384 830 0 c588 0 829 3 830 11 0 6 1 179 2 384 l2
372 -832 0 -831 0 -1 -383z"/>
<path d="M3099 4323 c-1 -11 -1 -725 0 -744 1 -14 78 -16 829 -15 l827 1 1
383 1 382 -828 0 c-456 0 -829 -3 -830 -7z"/>
<path d="M330 2994 l0 -384 830 0 830 0 0 385 0 384 -830 0 -830 0 0 -385z"/>
<path d="M2176 3002 c1 -207 2 -380 3 -385 0 -4 373 -6 828 -5 l828 3 0 383 0
382 -830 0 -830 -1 1 -377z"/>
<path d="M4020 2995 l0 -385 830 0 830 0 0 385 0 385 -830 0 -830 0 0 -385z"/>
<path d="M1256 2421 c-3 -4 -4 -177 -4 -384 l1 -377 828 0 c656 0 829 3 830
13 1 13 0 725 0 743 -1 13 -1647 18 -1655 5z"/>
<path d="M3099 2401 c-1 -34 -1 -678 0 -713 l1 -28 829 0 828 0 0 384 0 384
-828 0 -829 -1 -1 -26z"/>
</g>
</svg>
